<?xml version="1.0" encoding="utf-8"?>
<!-- Generator: Adobe Illustrator 16.0.0, SVG Export Plug-In . SVG Version: 6.00 Build 0)  -->
<!DOCTYPE svg PUBLIC "-//W3C//DTD SVG 1.1//EN" "http://www.w3.org/Graphics/SVG/1.1/DTD/svg11.dtd">
<svg version="1.1" id="Layer_1" xmlns="http://www.w3.org/2000/svg" xmlns:xlink="http://www.w3.org/1999/xlink" x="0px" y="0px"
	 width="26px" height="5.986px" viewBox="0 10.054 26 5.986" enable-background="new 0 10.054 26 5.986" xml:space="preserve">
<g id="logo__item--business">
	<g transform="translate(123.82402801513672 80.32437868541047) scale(1.6498331113670102 1.6498331113670102) rotate(0 0 0)">
		<g enable-background="new    ">
			<path fill="#141E70" d="M-68.768-39.477l-0.16-0.382h-0.725l-0.16,0.382h-0.212l0.633-1.493h0.203l0.633,1.493H-68.768z
				 M-69.576-40.048v0.011h0.571v-0.011l-0.282-0.682h-0.004L-69.576-40.048z"/>
		</g>
		<g enable-background="new    ">
			<path fill="#141E70" d="M-68.164-41.038v1.561h-0.194v-1.561H-68.164z"/>
		</g>
		<g enable-background="new    ">
			<path fill="#141E70" d="M-67.598-41.008v0.21h-0.21v-0.21H-67.598z M-67.801-39.477v-1.091h0.194v1.091H-67.801z"/>
		</g>
		<g enable-background="new    ">
			<path fill="#141E70" d="M-66.419-40.568h0.17v1.044c0,0.179-0.043,0.317-0.13,0.414c-0.087,0.097-0.212,0.146-0.378,0.146
				c-0.165,0-0.315-0.036-0.45-0.109v-0.193h0.011c0.121,0.079,0.263,0.118,0.426,0.118c0.218,0,0.327-0.117,0.327-0.349v-0.139
				h-0.007c-0.099,0.105-0.216,0.158-0.353,0.158c-0.136,0-0.258-0.049-0.364-0.146c-0.106-0.098-0.159-0.234-0.159-0.41
				c0-0.176,0.053-0.313,0.159-0.41c0.106-0.098,0.228-0.147,0.364-0.147c0.137,0,0.255,0.053,0.353,0.159h0.007L-66.419-40.568z
				 M-66.442-39.812v-0.44c-0.103-0.106-0.21-0.159-0.32-0.159c-0.111,0-0.2,0.033-0.268,0.097
				c-0.068,0.065-0.102,0.159-0.102,0.282c0,0.122,0.034,0.216,0.102,0.281c0.068,0.065,0.157,0.098,0.268,0.098
				C-66.652-39.654-66.545-39.707-66.442-39.812z"/>
		</g>
		<g enable-background="new    ">
			<path fill="#141E70" d="M-65.318-40.589c0.118,0,0.212,0.04,0.281,0.12c0.069,0.08,0.102,0.181,0.102,0.301v0.693h-0.194v-0.672
				c0-0.174-0.078-0.26-0.236-0.26c-0.124,0-0.241,0.067-0.35,0.205v0.727h-0.194v-1.091h0.17l0.024,0.137v0.032h0.005
				C-65.596-40.525-65.465-40.589-65.318-40.589z"/>
		</g>
		<g enable-background="new    ">
			<path fill="#141E70" d="M-63.649-40.022v0.067h-0.826c0.011,0.101,0.049,0.179,0.111,0.233c0.062,0.055,0.156,0.083,0.285,0.083
				c0.128,0,0.246-0.036,0.354-0.107h0.011v0.188c-0.12,0.066-0.26,0.099-0.423,0.099c-0.161,0-0.291-0.049-0.389-0.149
				c-0.098-0.098-0.146-0.233-0.146-0.403c0-0.169,0.043-0.308,0.13-0.418c0.088-0.11,0.214-0.165,0.381-0.165
				c0.167,0,0.294,0.055,0.381,0.165C-63.693-40.314-63.649-40.181-63.649-40.022z M-64.475-40.112h0.631
				c-0.006-0.103-0.04-0.181-0.104-0.233c-0.063-0.053-0.134-0.079-0.213-0.079c-0.079,0-0.149,0.027-0.211,0.079
				C-64.434-40.293-64.469-40.215-64.475-40.112z"/>
		</g>
		<g enable-background="new    ">
			<path fill="#141E70" d="M-63.299-40.435c0.103-0.102,0.224-0.154,0.362-0.154c0.139,0,0.258,0.053,0.359,0.159h0.007v-0.608
				h0.194v1.561h-0.17l-0.024-0.137h-0.007c-0.101,0.105-0.22,0.158-0.359,0.158c-0.138,0-0.259-0.051-0.362-0.154
				c-0.104-0.102-0.154-0.24-0.154-0.413C-63.454-40.195-63.404-40.332-63.299-40.435z M-62.909-39.637
				c0.128,0,0.24-0.053,0.337-0.16v-0.449c-0.097-0.108-0.21-0.16-0.337-0.16c-0.107,0-0.191,0.034-0.256,0.101
				c-0.065,0.067-0.096,0.162-0.096,0.285c0,0.123,0.032,0.217,0.096,0.284C-63.099-39.67-63.015-39.637-62.909-39.637z"/>
		</g>
		<g enable-background="new    ">
			<path fill="#141E70" d="M-61.25-40.97v1.493h-0.195v-1.493H-61.25z"/>
		</g>
		<g enable-background="new    ">
			<path fill="#141E70" d="M-59.862-39.515v0.007l0.291,0.325v0.007h-0.24l-0.236-0.287c-0.036,0.006-0.079,0.009-0.129,0.009
				c-0.225,0-0.405-0.072-0.541-0.214c-0.135-0.143-0.205-0.327-0.21-0.554c0.005-0.227,0.075-0.411,0.21-0.554
				c0.136-0.143,0.316-0.214,0.541-0.214c0.226,0,0.406,0.071,0.541,0.214c0.136,0.143,0.206,0.327,0.21,0.554
				c-0.003,0.167-0.043,0.313-0.121,0.437C-59.621-39.661-59.728-39.571-59.862-39.515z M-60.73-40.223
				c0,0.169,0.049,0.31,0.149,0.42s0.234,0.166,0.406,0.166c0.172,0,0.308-0.056,0.408-0.166c0.099-0.11,0.15-0.251,0.15-0.42
				c0-0.169-0.05-0.31-0.15-0.42c-0.1-0.111-0.236-0.166-0.408-0.166c-0.172,0-0.307,0.055-0.406,0.166
				C-60.681-40.533-60.73-40.392-60.73-40.223z"/>
		</g>
	</g>
</g>
<g id="logo__item--logo_0">
	<g transform="translate(-4.90712266823266 -20.5) scale(1.3581454194376998 1.3581454194376998) rotate(0 0 0)">
		<g>
			<path fill="#141E70" d="M8.818,24.421c-0.225-0.01-0.45,0.002-0.673,0.024c-0.808,0.071-1.81,0.242-2.398,0.394
				c-0.505,0.131-1.754,0.554-1.986,0.645c0.276-0.052,1.266-0.355,1.672-0.224c0.317,0.101,0.546,0.308,0.642,0.475
				c0.093,0.164,0.123,0.495,0.091,0.743c0.72-0.884,1.668-1.573,2.705-2.038C8.858,24.435,8.832,24.426,8.818,24.421z"/>
			<path fill="#03A9F4" d="M9.157,23.191c-0.687-0.786-1.977-0.925-2.822-0.313c-0.556,0.382-0.897,1.043-0.902,1.715
				c0,0,0.01,0.189,0.014,0.225c0.058-0.014,0.19-0.054,0.229-0.065c0.852-0.251,1.746-0.325,2.632-0.383
				c0.17-0.006,0.625,0.029,0.639,0.013c-0.953-0.2-1.94-0.184-2.906-0.105c0.023-0.073,0.046-0.145,0.069-0.217
				c0.898-0.133,1.807-0.004,2.687,0.179c-0.778-0.354-1.639-0.522-2.494-0.534c0.068-0.075,0.118-0.183,0.223-0.212
				c0.781,0.008,1.539,0.259,2.231,0.608c-0.48-0.496-1.155-0.745-1.815-0.894c0.618-0.307,1.432-0.085,1.838,0.465
				c0.28,0.36,0.36,0.852,0.246,1.289c-0.15,0.548-0.604,0.998-1.149,1.15c-0.353,0.112-0.725,0.079-1.079-0.006
				c0.769,0.453,1.856,0.308,2.443-0.375C9.861,25.023,9.778,23.872,9.157,23.191z"/>
		</g>
	</g>
</g>
</svg>
