<?xml version="1.0" encoding="utf-8"?>
<!-- Generator: Adobe Illustrator 16.0.0, SVG Export Plug-In . SVG Version: 6.00 Build 0)  -->
<!DOCTYPE svg PUBLIC "-//W3C//DTD SVG 1.1//EN" "http://www.w3.org/Graphics/SVG/1.1/DTD/svg11.dtd">
<svg version="1.1" id="Layer_1" xmlns="http://www.w3.org/2000/svg" xmlns:xlink="http://www.w3.org/1999/xlink" x="0px" y="0px"
	 width="233px" height="25px" viewBox="0 0 233 25" enable-background="new 0 0 233 25" xml:space="preserve">
<g>
	<polygon points="3.924,24.115 1.002,24.115 9.034,0.885 11.799,0.885 	"/>
	<rect x="19.781" y="0.885" fill="#4FBA74" width="2.922" height="23.23"/>
	<path fill="#4FBA74" d="M49.413,12.498c0,7.732-4.881,11.879-10.42,11.879c-5.54,0-10.42-4.146-10.42-11.879
		s4.876-11.876,10.42-11.876S49.413,4.77,49.413,12.498 M31.592,12.498c0,6.072,3.285,9.092,7.401,9.092c4.115,0,7.4-3.02,7.4-9.092
		c0-6.074-3.285-9.088-7.4-9.088C34.877,3.41,31.592,6.429,31.592,12.498"/>
	<polygon fill="#4FBA74" points="52.154,0.885 68.482,0.885 68.482,3.65 61.754,3.65 61.754,24.115 58.831,24.115 58.831,3.673 
		52.154,3.673 	"/>
	<path d="M90.889,17.346c-1.029,4.08-4.25,7.033-9.094,7.033c-5.41,0-10.482-3.949-10.482-11.881
		c0-7.931,5.068-11.875,10.482-11.875c4.844,0,8.064,2.953,9.094,7.032l-2.821,0.83c-1.064-3.226-3.226-5.069-6.272-5.069
		c-4.281,0-7.465,3.083-7.465,9.087c0,6.006,3.17,9.09,7.465,9.09c3.052,0,5.208-1.844,6.272-5.072L90.889,17.346z"/>
	<path d="M116.367,12.498c0,7.732-4.875,11.879-10.42,11.879c-5.543,0-10.419-4.146-10.419-11.879s4.881-11.876,10.419-11.876
		C111.487,0.622,116.367,4.77,116.367,12.498 M98.552,12.498c0,6.072,3.284,9.092,7.372,9.092c4.089,0,7.402-3.02,7.402-9.092
		c0-6.074-3.264-9.088-7.379-9.088S98.552,6.429,98.552,12.498"/>
	<polygon points="138.5,0.885 138.5,24.115 135.105,24.115 124.598,5.632 124.598,24.115 121.676,24.115 121.676,0.885 
		125.096,0.885 135.564,19.369 135.564,0.885 	"/>
	<polygon points="161.792,0.885 161.792,24.115 158.378,24.115 147.889,5.632 147.889,24.115 144.966,24.115 144.966,0.885 
		148.386,0.885 158.875,19.369 158.875,0.885 	"/>
	<polygon points="181.604,0.885 181.604,3.65 171.178,3.65 171.178,10.341 179.606,10.341 179.606,13.129 171.178,13.129 
		171.178,21.328 181.931,21.328 181.931,24.092 168.285,24.092 168.285,0.885 	"/>
	<path d="M205.691,17.346c-1.03,4.08-4.25,7.033-9.094,7.033c-5.41,0-10.488-3.949-10.488-11.881
		c0-7.931,5.078-11.875,10.488-11.875c4.844,0,8.063,2.953,9.094,7.032l-2.82,0.83c-1.064-3.226-3.228-5.069-6.273-5.069
		c-4.279,0-7.464,3.083-7.464,9.087c0,6.006,3.185,9.09,7.464,9.09c3.051,0,5.209-1.844,6.273-5.072L205.691,17.346z"/>
	<polygon points="209.073,0.885 225.395,0.885 225.395,3.65 218.696,3.65 218.696,24.115 215.773,24.115 215.773,3.673 
		209.073,3.673 	"/>
	<g>
		<path fill="#231F20" d="M231.998,2.522c0,0.863-0.678,1.541-1.56,1.541c-0.872,0-1.568-0.678-1.568-1.541
			c0-0.845,0.696-1.523,1.568-1.523C231.32,1,231.998,1.677,231.998,2.522z M229.26,2.522c0,0.678,0.501,1.216,1.188,1.216
			c0.668,0,1.16-0.539,1.16-1.207c0-0.678-0.492-1.226-1.17-1.226S229.26,1.854,229.26,2.522z M230.196,3.321h-0.353V1.798
			c0.14-0.028,0.334-0.046,0.586-0.046c0.287,0,0.417,0.046,0.529,0.111c0.083,0.065,0.148,0.187,0.148,0.334
			c0,0.167-0.131,0.297-0.316,0.353v0.019c0.149,0.056,0.232,0.167,0.278,0.372c0.047,0.232,0.075,0.325,0.111,0.38h-0.38
			c-0.046-0.056-0.075-0.195-0.121-0.371c-0.027-0.167-0.121-0.242-0.315-0.242h-0.168V3.321z M230.206,2.457h0.167
			c0.195,0,0.353-0.065,0.353-0.222c0-0.14-0.102-0.232-0.324-0.232c-0.093,0-0.157,0.009-0.195,0.019V2.457z"/>
	</g>
</g>
</svg>
